<svg xmlns="http://www.w3.org/2000/svg" viewBox="0 0 74.54 76.5"><defs><style>.cls-1{fill:#fff;}</style></defs><g id="레이어_2" data-name="레이어 2"><g id="Layer_1" data-name="Layer 1"><path class="cls-1" d="M63.93,76.5H46.77V55.64A4.69,4.69,0,0,0,42.09,51H32.45a4.69,4.69,0,0,0-4.68,4.68V76.5H10.61A10.62,10.62,0,0,1,0,65.89V33.94a12.55,12.55,0,0,1,4.34-9.5L29.05,3.05a12.59,12.59,0,0,1,16.44,0l24.72,21.4a12.54,12.54,0,0,1,4.33,9.49v32A10.62,10.62,0,0,1,63.93,76.5Zm-14.16-3H63.93a7.62,7.62,0,0,0,7.61-7.61V33.94a9.55,9.55,0,0,0-3.3-7.23L43.53,5.31A9.61,9.61,0,0,0,31,5.31h0L6.3,26.71A9.55,9.55,0,0,0,3,33.94v32a7.63,7.63,0,0,0,7.61,7.61H24.77V55.64A7.69,7.69,0,0,1,32.45,48h9.64a7.69,7.69,0,0,1,7.68,7.68Z"/></g></g></svg>