<svg xmlns="http://www.w3.org/2000/svg" viewBox="0 0 72.56 77.16"><defs><style>.cls-1{fill:#fff;}</style></defs><g id="레이어_2" data-name="레이어 2"><g id="Layer_1" data-name="Layer 1"><path class="cls-1" d="M7.94,70a4.12,4.12,0,0,1-4.05-4.65l2.3-17.47A4.15,4.15,0,0,1,7,46L41.05,1.6A4.11,4.11,0,0,1,46.8.85l14,10.73a4.06,4.06,0,0,1,1.57,2.72,4.12,4.12,0,0,1-.81,3l-34,44.35A4.18,4.18,0,0,1,25.81,63L9.52,69.71A4.17,4.17,0,0,1,7.94,70ZM44.3,3a1.1,1.1,0,0,0-.87.43l-34,44.34a1.3,1.3,0,0,0-.22.53L6.86,65.77a1.09,1.09,0,0,0,.42,1,1.08,1.08,0,0,0,1.1.15L24.66,60.2a1.19,1.19,0,0,0,.45-.35L59.16,15.5a1.07,1.07,0,0,0,.21-.81A1,1,0,0,0,59,14L45,3.23A1.08,1.08,0,0,0,44.3,3Z"/><path class="cls-1" d="M71.06,77.16H1.5a1.5,1.5,0,0,1,0-3H71.06a1.5,1.5,0,0,1,0,3Z"/><rect class="cls-1" x="15.75" y="42.4" width="3" height="22.83" transform="translate(-35.94 34.72) rotate(-52.49)"/><rect class="cls-1" x="45.48" y="3.67" width="3" height="22.83" transform="translate(6.06 42.65) rotate(-51.77)"/></g></g></svg>