<svg xmlns="http://www.w3.org/2000/svg" xmlns:xlink="http://www.w3.org/1999/xlink" viewBox="0 0 200.48 209.19"><defs><style>.cls-1{fill:none;}.cls-2{clip-path:url(#clip-path);}.cls-3{fill:url(#linear-gradient);}.cls-4{fill:url(#linear-gradient-2);}.cls-5{fill:url(#linear-gradient-3);}</style><clipPath id="clip-path" transform="translate(-0.32 -10.06)"><circle class="cls-1" cx="100.56" cy="100.56" r="100.56"/></clipPath><linearGradient id="linear-gradient" x1="15054.85" y1="7389.6" x2="15054.85" y2="7212.75" gradientTransform="translate(15155.41 7432.01) rotate(180)" gradientUnits="userSpaceOnUse"><stop offset="0" stop-color="#9580ba"/><stop offset="0.21" stop-color="#9580ba" stop-opacity="0.73"/><stop offset="0.48" stop-color="#9580ba" stop-opacity="0.42"/><stop offset="0.71" stop-color="#9580ba" stop-opacity="0.19"/><stop offset="0.89" stop-color="#9580ba" stop-opacity="0.05"/><stop offset="1" stop-color="#9580ba" stop-opacity="0"/></linearGradient><linearGradient id="linear-gradient-2" x1="100.56" y1="10.06" x2="100.56" y2="212.1" gradientUnits="userSpaceOnUse"><stop offset="0" stop-color="#4bc1f0"/><stop offset="0.11" stop-color="#4bc1f0" stop-opacity="0.92"/><stop offset="0.33" stop-color="#4bc1f0" stop-opacity="0.72"/><stop offset="0.65" stop-color="#4bc1f0" stop-opacity="0.39"/><stop offset="1" stop-color="#4bc1f0" stop-opacity="0"/></linearGradient><linearGradient id="linear-gradient-3" x1="100.56" y1="87.52" x2="100.56" y2="207.84" gradientUnits="userSpaceOnUse"><stop offset="0" stop-color="#ed7274"/><stop offset="0.16" stop-color="#ed7274" stop-opacity="0.99"/><stop offset="0.29" stop-color="#ed7274" stop-opacity="0.94"/><stop offset="0.42" stop-color="#ed7274" stop-opacity="0.87"/><stop offset="0.53" stop-color="#ed7274" stop-opacity="0.76"/><stop offset="0.65" stop-color="#ed7274" stop-opacity="0.63"/><stop offset="0.76" stop-color="#ed7274" stop-opacity="0.46"/><stop offset="0.87" stop-color="#ed7274" stop-opacity="0.27"/><stop offset="0.98" stop-color="#ed7274" stop-opacity="0.05"/><stop offset="1" stop-color="#ed7274" stop-opacity="0"/></linearGradient></defs><g id="레이어_2" data-name="레이어 2"><g id="Layer_1" data-name="Layer 1"><g class="cls-2"><path class="cls-3" d="M.42,160.81s8.75-55,54.68-45.43c31.38,6.52,47.15-9.51,52.82-28.46,16.61-55.45,73-63.59,92.77,1.25l-.38,131.08H.42Z" transform="translate(-0.32 -10.06)"/><path class="cls-4" d="M.32,133.36s11-32.57,29.92-28.36c9.91,2.2,18.88,17.47,25.18,29.22,5.32,9.93,27.63,20.44,42.15-4.19,17.11-29,39.18-29.67,60.21-42.1,27.57-16.28,26.5-88.76,43-76.47l-.59,200.64H.32Z" transform="translate(-0.32 -10.06)"/><path class="cls-5" d="M.32,129l37.8,20.21S89,176.35,121.5,142.11s44-79,79.3-38.61l-.31,104.34H.32Z" transform="translate(-0.32 -10.06)"/></g></g></g></svg>