<svg xmlns="http://www.w3.org/2000/svg" xmlns:xlink="http://www.w3.org/1999/xlink" viewBox="0 0 670.72 145.63"><defs><style>.cls-1{fill:url(#linear-gradient);}.cls-2{fill:url(#linear-gradient-2);}.cls-3{fill:url(#linear-gradient-3);}.cls-4{fill:url(#linear-gradient-4);}</style><linearGradient id="linear-gradient" x1="249.97" y1="145.63" x2="249.97" y2="18.15" gradientUnits="userSpaceOnUse"><stop offset="0" stop-color="#ec7274"/><stop offset="0.13" stop-color="#ec7274" stop-opacity="0.98"/><stop offset="0.26" stop-color="#ec7274" stop-opacity="0.93"/><stop offset="0.39" stop-color="#ec7274" stop-opacity="0.85"/><stop offset="0.52" stop-color="#ec7274" stop-opacity="0.73"/><stop offset="0.65" stop-color="#ec7274" stop-opacity="0.58"/><stop offset="0.78" stop-color="#ec7274" stop-opacity="0.4"/><stop offset="0.91" stop-color="#ec7274" stop-opacity="0.18"/><stop offset="1" stop-color="#ec7274" stop-opacity="0"/></linearGradient><linearGradient id="linear-gradient-2" x1="425.05" y1="0" x2="425.05" y2="145.63" xlink:href="#linear-gradient"/><linearGradient id="linear-gradient-3" x1="598.46" y1="31.53" x2="598.46" y2="145.63" xlink:href="#linear-gradient"/><linearGradient id="linear-gradient-4" x1="72.24" y1="21.96" x2="72.24" y2="145.63" xlink:href="#linear-gradient"/></defs><g id="레이어_2" data-name="레이어 2"><g id="Layer_1" data-name="Layer 1"><path class="cls-1" d="M322.15,60.28S315.84,99.91,282.74,93c-22.63-4.7-34,6.85-38.08,20.51-12,40-52.61,45.84-66.87-.9l.28-94.49H322.15Z"/><path class="cls-2" d="M352.8,88.87s7.93-23.47,21.57-20.44C381.51,70,388,81,392.51,89.49c3.84,7.16,19.92,14.74,30.39-3,12.32-20.91,28.23-21.38,43.39-30.34,19.87-11.74,19.11-64,31-55.12l-.42,144.62H352.8Z"/><path class="cls-3" d="M526.21,88.87s7.94-23.47,21.57-20.44C554.92,70,561.39,81,565.93,89.49c3.83,7.16,13.34,24.59,32.53,27.3,16.36,2.31,26.86-15.53,35.53-30.85,12.25-21.65,24.82-62,36.73-53.16l-.43,112.85H526.21Z"/><path class="cls-4" d="M.26,88.87c1-24.52,5.26-67,41.5-66.91C67.93,22,75.64,42.91,82.52,73.88,85.21,86,98.19,113.17,126.13,107.2c16.13-3.45,18.35-11.66,18.35-11.66l-.14,50.09H.26S-.32,103.05.26,88.87Z"/></g></g></svg>