<svg xmlns="http://www.w3.org/2000/svg" xmlns:xlink="http://www.w3.org/1999/xlink" viewBox="0 0 268.91 461.51"><defs><style>.cls-1,.cls-6{fill:none;}.cls-2{clip-path:url(#clip-path);}.cls-3{fill:url(#linear-gradient);}.cls-4{fill:url(#linear-gradient-2);}.cls-5{fill:url(#linear-gradient-3);}.cls-6,.cls-7{stroke:#fff;stroke-miterlimit:10;}.cls-6{stroke-linecap:round;stroke-width:4px;}.cls-7{fill:#fff;}</style><clipPath id="clip-path" transform="translate(-0.43 -13.5)"><circle class="cls-1" cx="134.88" cy="134.88" r="134.88"/></clipPath><linearGradient id="linear-gradient" x1="10046.83" y1="12519.01" x2="10046.83" y2="12281.79" gradientTransform="translate(10181.71 12575.89) rotate(180)" gradientUnits="userSpaceOnUse"><stop offset="0" stop-color="#9380b9"/><stop offset="0.21" stop-color="#9380b9" stop-opacity="0.74"/><stop offset="0.48" stop-color="#9380b9" stop-opacity="0.42"/><stop offset="0.71" stop-color="#9380b9" stop-opacity="0.19"/><stop offset="0.89" stop-color="#9380b9" stop-opacity="0.05"/><stop offset="1" stop-color="#9380b9" stop-opacity="0"/></linearGradient><linearGradient id="linear-gradient-2" x1="134.88" y1="13.5" x2="134.88" y2="284.51" gradientUnits="userSpaceOnUse"><stop offset="0" stop-color="#4ac0ef"/><stop offset="0.11" stop-color="#4ac0ef" stop-opacity="0.92"/><stop offset="0.33" stop-color="#4ac0ef" stop-opacity="0.72"/><stop offset="0.65" stop-color="#4ac0ef" stop-opacity="0.39"/><stop offset="1" stop-color="#4ac0ef" stop-opacity="0"/></linearGradient><linearGradient id="linear-gradient-3" x1="134.88" y1="117.4" x2="134.88" y2="278.79" gradientUnits="userSpaceOnUse"><stop offset="0" stop-color="#ec7274"/><stop offset="0.16" stop-color="#ec7274" stop-opacity="0.99"/><stop offset="0.29" stop-color="#ec7274" stop-opacity="0.94"/><stop offset="0.42" stop-color="#ec7274" stop-opacity="0.87"/><stop offset="0.54" stop-color="#ec7274" stop-opacity="0.76"/><stop offset="0.65" stop-color="#ec7274" stop-opacity="0.63"/><stop offset="0.76" stop-color="#ec7274" stop-opacity="0.46"/><stop offset="0.87" stop-color="#ec7274" stop-opacity="0.27"/><stop offset="0.98" stop-color="#ec7274" stop-opacity="0.04"/><stop offset="1" stop-color="#ec7274" stop-opacity="0"/></linearGradient></defs><g id="레이어_2" data-name="레이어 2"><g id="Layer_1" data-name="Layer 1"><g class="cls-2"><path class="cls-3" d="M.56,215.7S12.3,142,73.91,154.76c42.1,8.75,63.25-12.76,70.86-38.17,22.27-74.37,97.9-85.3,124.43,1.68l-.51,175.83H.56Z" transform="translate(-0.43 -13.5)"/><path class="cls-4" d="M.43,178.88s14.77-43.68,40.14-38c13.28,2.95,25.32,23.44,33.77,39.2,7.14,13.32,37.06,27.42,56.54-5.63,22.94-38.91,52.55-39.79,80.76-56.46,37-21.85,35.55-119.06,57.7-102.58l-.79,269.14H.43Z" transform="translate(-0.43 -13.5)"/><path class="cls-5" d="M.43,173l50.7,27.11s68.3,36.42,111.85-9.51,59-105.9,106.36-51.78l-.41,140H.43Z" transform="translate(-0.43 -13.5)"/></g><path class="cls-6" d="M160.33,442.43s15.34-20.23,32.42-5.61a5.29,5.29,0,0,1-1.15,9L167,458.6a5.28,5.28,0,0,0-.9,9.15c7,5.39,19.34,10.52,31.89-5.66" transform="translate(-0.43 -13.5)"/><path class="cls-7" d="M179,363.5a16.27,16.27,0,0,0-16.24,16.4A16.09,16.09,0,0,0,179,396a16.27,16.27,0,0,0,16.58-16.07A16.45,16.45,0,0,0,179,363.5Zm0,29.4a13.14,13.14,0,0,1-13.16-13A13.43,13.43,0,0,1,179,366.57a13.73,13.73,0,0,1,13.5,13.33C192.5,387.08,186.18,392.9,179,392.9Z" transform="translate(-0.43 -13.5)"/><path class="cls-7" d="M100,378.33v16.72a1.65,1.65,0,0,0,.54,1.22l17,15.27a1.64,1.64,0,0,1,.11,2.33h0a1.64,1.64,0,0,1-2.3.11L99.42,399.74a1.63,1.63,0,0,0-2.2,0L81.49,414.19a1.65,1.65,0,0,1-2.27-.05l-.08-.09a1.63,1.63,0,0,1,0-2.37l16.92-15.41a1.63,1.63,0,0,0,.53-1.21V378.33a1.64,1.64,0,0,1,1.65-1.64h0A1.63,1.63,0,0,1,100,378.33Z" transform="translate(-0.43 -13.5)"/><path class="cls-7" d="M97.05,402.18h1.67a.85.85,0,0,1,.85.85v23.82a0,0,0,0,1,0,0H96.2a0,0,0,0,1,0,0V403A.85.85,0,0,1,97.05,402.18Z"/><rect class="cls-7" x="177.06" y="396.95" width="3.37" height="21.06"/><path class="cls-7" d="M97.5,440.91A60.25,60.25,0,0,1,77,437.41c-8.25-3.05-14.69-7.86-16.79-12.37a1.46,1.46,0,0,1,1-2h0a1.43,1.43,0,0,1,1.62.8c1.49,3.22,6.54,7.66,15.15,10.85,6.86,2.54,31.2,9.37,56.59-9.44,24.08-17.84,44.64-18.38,57.64-15.69A56.78,56.78,0,0,1,229,435.61a1.47,1.47,0,0,1-.52,2h0a1.44,1.44,0,0,1-2-.5,53.89,53.89,0,0,0-34.83-24.73c-12.43-2.56-32.11-2-55.33,15.19C122.26,438,108.44,440.91,97.5,440.91Z" transform="translate(-0.43 -13.5)"/></g></g></svg>